<svg version="1.2" xmlns="http://www.w3.org/2000/svg" viewBox="0 0 150 173" width="150" height="173">
	<title>logo-svg</title>
	<style>
		.s0 { fill: #585858 } 
		.s1 { fill: #ffffff } 
	</style>
	<path id="Layer" class="s0" d="m149.2 129.2l-74.6 43-74.6-43v-86.1l74.6-43.1 74.6 43.1z"/>
	<path id="Layer" fill-rule="evenodd" class="s1" d="m99.8 60l15.5 20.6q0.6 0.8 0.5 1.7 0 1-0.7 1.6l-38.6 41.3q-0.7 0.8-1.9 0.8-1.2 0-1.9-0.8l-38.7-41.3q-0.6-0.6-0.7-1.6 0-0.9 0.6-1.7l15.4-20.6q0.8-1 2.1-1h46.4q1.3 0 2 1zm-25.2 55.8l14-31h-28.1zm-19.5-36.3l8.2-15.5h-10.6l-11.6 15.5zm27.2 31.9l25.1-26.7h-13zm-21.4-32h27.5l-8.2-15.4h-11zm33.3 0h13.9l-11.6-15.5h-10.6zm-52.2 5.1l25.1 26.8-12.1-26.8z"/>
	<path id="Forma 1" class="s0" d="m124 32v106h-99v-106z"/>
	<path id="W" class="s1" aria-label="W"  d="m61.2 138h-13.8l-14.2-65.1 14.2-4.5 10.9 52.9 14.1-16.6v20.6zm41.8 0h-13.8l-11.3-12.7v-20.6l13.7 16.6 11.4-52.9 13.6 4.5z"/>
	<path id="M" class="s1" aria-label="M"  d="m56 40.2h6.6l11.7 11.1v8.6l-11.1-10.5v23.6h-7.2zm39.4 0h-6.5l-11.8 11.1v8.6l11.1-10.5v23.6h7.2z"/>
</svg>