<svg version="1.2" xmlns="http://www.w3.org/2000/svg" viewBox="0 0 150 173" width="150" height="173"><style>tspan{white-space:pre}.a{fill:#585858}.b{fill:#fff}.c{font-size: 55px;fill: #ffffff;font-weight: 400;font-family: "Wallpoet", "Wallpoet"}</style><path class="a" d="m149.2 129.2l-74.6 43-74.6-43v-86.1l74.6-43.1 74.6 43.1z"/><path fill-rule="evenodd" class="b" d="m99.8 60l15.5 20.6q0.6 0.8 0.5 1.7 0 1-0.7 1.6l-38.6 41.3q-0.7 0.8-1.9 0.8-1.2 0-1.9-0.8l-38.7-41.3q-0.6-0.6-0.7-1.6 0-0.9 0.6-1.7l15.4-20.6q0.8-1 2.1-1h46.4q1.3 0 2 1zm-25.2 55.8l14-31h-28.1zm-19.5-36.3l8.2-15.5h-10.6l-11.6 15.5zm27.2 31.9l25.1-26.7h-13zm-21.4-32h27.5l-8.2-15.4h-11zm33.3 0h13.9l-11.6-15.5h-10.6zm-52.2 5.1l25.1 26.8-12.1-26.8z"/><path class="a" d="m124 32v106h-99v-106z"/><text style="transform:matrix(2.2,0,0,2.2,30.8,68)" ><tspan x="0" y="31.7" class="c">W
</tspan></text><text style="transform:matrix(1.038,0,0,1.038,50.34,73.207)" ><tspan x="0" y="0" class="c">M</tspan><tspan  y="0" class="c">
</tspan></text></svg>